<svg width="416" height="416" viewBox="0 0 416 416" fill="none" xmlns="http://www.w3.org/2000/svg">
<path d="M411.94 5.24999C410.479 3.6444 408.707 2.35175 406.732 1.45014C404.757 0.548538 402.62 0.0567064 400.45 0.00436369C398.279 -0.047979 396.121 0.340254 394.105 1.14561C392.089 1.95096 390.257 3.15671 388.72 4.68999L376.35 17C374.851 18.5001 374.009 20.5342 374.009 22.655C374.009 24.7758 374.851 26.8098 376.35 28.31L387.69 39.63C388.433 40.3768 389.317 40.9694 390.29 41.3738C391.263 41.7782 392.306 41.9863 393.36 41.9863C394.414 41.9863 395.457 41.7782 396.43 41.3738C397.403 40.9694 398.287 40.3768 399.03 39.63L411.09 27.63C417.19 21.54 417.76 11.62 411.94 5.24999ZM351.34 42L170.82 222.2C169.726 223.29 168.93 224.643 168.51 226.13L160.16 251C159.96 251.675 159.946 252.391 160.119 253.073C160.292 253.756 160.646 254.378 161.144 254.876C161.642 255.374 162.264 255.728 162.947 255.901C163.629 256.074 164.345 256.06 165.02 255.86L189.87 247.51C191.357 247.09 192.71 246.295 193.8 245.2L374 64.66C375.667 62.975 376.602 60.7003 376.602 58.33C376.602 55.9596 375.667 53.685 374 52L364.05 42C362.363 40.3176 360.078 39.3729 357.695 39.3729C355.312 39.3729 353.027 40.3176 351.34 42V42Z" fill="black"/>
<path d="M338.34 145.66L216.45 267.79C211.739 272.513 205.949 276.017 199.58 278L173.68 286.67C167.533 288.406 161.035 288.471 154.854 286.86C148.674 285.248 143.035 282.018 138.519 277.501C134.002 272.985 130.772 267.346 129.16 261.165C127.549 254.985 127.614 248.487 129.35 242.34L138.02 216.44C139.997 210.073 143.495 204.283 148.21 199.57L270.34 77.66C271.459 76.5418 272.222 75.1166 272.532 73.5649C272.841 72.0132 272.684 70.4045 272.079 68.9423C271.474 67.4801 270.449 66.2301 269.134 65.3504C267.819 64.4707 266.272 64.0007 264.69 64H56C41.1479 64 26.9041 69.9 16.402 80.402C5.89999 90.9041 0 105.148 0 120V360C0 374.852 5.89999 389.096 16.402 399.598C26.9041 410.1 41.1479 416 56 416H296C310.852 416 325.096 410.1 335.598 399.598C346.1 389.096 352 374.852 352 360V151.31C351.999 149.728 351.529 148.181 350.65 146.866C349.77 145.551 348.52 144.526 347.058 143.921C345.596 143.316 343.987 143.159 342.435 143.468C340.883 143.778 339.458 144.541 338.34 145.66Z" fill="black"/>
</svg>
